<svg width="654" height="397" viewBox="0 0 654 397" fill="none" xmlns="http://www.w3.org/2000/svg">
<rect x="22" y="95" width="299" height="46" rx="3" stroke="#2C2C2C" stroke-width="2"/>
<rect x="342" y="95" width="299" height="46" rx="3" stroke="#2C2C2C" stroke-width="2"/>
<rect x="22" y="214" width="179" height="46" rx="3" stroke="#2C2C2C" stroke-width="2"/>
<rect x="234" y="214" width="138" height="46" rx="3" stroke="#2C2C2C" stroke-width="2"/>
<rect x="393" y="214" width="118" height="46" rx="3" stroke="#2C2C2C" stroke-width="2"/>
<rect x="523" y="214" width="118" height="46" rx="3" stroke="#2C2C2C" stroke-width="2"/>
<rect x="1" y="1" width="652" height="34" fill="#C6F047" stroke="#2C2C2C" stroke-width="2"/>
<rect x="253" y="319" width="172" height="36" fill="#C6F047"/>
<rect x="600" y="95" width="41" height="46" fill="#C6F047" stroke="#2C2C2C" stroke-width="2"/>
<rect x="471" y="214" width="41" height="46" fill="#C6F047" stroke="#2C2C2C" stroke-width="2"/>
<rect x="600" y="214" width="41" height="46" fill="#C6F047" stroke="#2C2C2C" stroke-width="2"/>
<rect x="160" y="214" width="41" height="46" fill="#C6F047" stroke="#2C2C2C" stroke-width="2"/>
<rect x="340" y="214" width="42" height="46" fill="#C6F047" stroke="#2C2C2C" stroke-width="2"/>
<path d="M653 1V385C653 391.075 648.075 396 642 396H12C5.92487 396 1 391.075 1 385V1H653Z" stroke="#2C2C2C" stroke-width="2"/>
<path d="M24.4746 25H22.541L17.8125 14.4004V25H16.3184V11.8955H18.208L23.0068 22.46V11.8955H24.4746V25ZM29.3613 18.9883V23.7168H35.5488L35.417 25H27.7178V11.8955H35.2588L35.1182 13.1787H29.3613V17.5908H34.8281V18.9883H29.3613ZM44.5752 23.1543L45.1553 11.8955H46.7812L45.7529 25H43.7402L42.123 19.208L40.4004 25H38.4141L37.2012 11.8955H38.8271L39.7412 23.1279L41.3848 17.2656H42.9053L44.5752 23.1543ZM63.2256 17.7578C64.2217 17.7578 64.9863 17.5762 65.5195 17.2129C66.0586 16.8438 66.3281 16.2227 66.3281 15.3496C66.3281 14.9512 66.2432 14.6055 66.0732 14.3125C65.6279 13.5566 64.667 13.1787 63.1904 13.1787H61.5205V17.7578H63.2256ZM62.4258 11.8955C63.5156 11.8955 64.459 11.9746 65.2559 12.1328C66.0586 12.291 66.7236 12.625 67.251 13.1348C67.7783 13.6387 68.042 14.374 68.042 15.3408C68.042 16.3018 67.7754 17.0693 67.2422 17.6436C66.7148 18.2119 66.0117 18.5928 65.1328 18.7861C65.8242 19.6709 66.4336 20.5967 66.9609 21.5635C67.4883 22.5244 68.0537 23.6699 68.6572 25H66.75C66.7207 24.9414 66.6211 24.7305 66.4512 24.3672C66.2871 23.998 66.1875 23.7754 66.1523 23.6992C66.1172 23.623 66.0234 23.4297 65.8711 23.1191C65.7246 22.8086 65.6191 22.5977 65.5547 22.4863C65.4961 22.3691 65.3936 22.1729 65.2471 21.8975C65.1064 21.6221 64.9834 21.4023 64.8779 21.2383C64.7783 21.0742 64.623 20.8193 64.4121 20.4736C64.207 20.1279 63.9111 19.6885 63.5244 19.1553L62.2852 19.1816H61.5205V25H59.877V11.8955H62.4258ZM72.6035 18.9883V23.7168H78.791L78.6592 25H70.96V11.8955H78.501L78.3604 13.1787H72.6035V17.5908H78.0703V18.9883H72.6035ZM89.7773 12.7744L89.1973 13.9258C88.418 13.3223 87.5742 13.0205 86.666 13.0205C85.7578 13.0205 85.0078 13.2754 84.416 13.7852C83.2559 14.7754 82.6758 16.3223 82.6758 18.4258C82.6758 19.4395 82.8252 20.3535 83.124 21.168C83.4229 21.9824 83.8652 22.6357 84.4512 23.1279C85.043 23.6143 85.7314 23.8574 86.5166 23.8574C87.542 23.8574 88.4414 23.541 89.2148 22.9082L89.7861 24.1475C88.9658 24.8623 87.8086 25.2197 86.3145 25.2197C85.2422 25.2197 84.2959 24.9268 83.4756 24.3408C82.6611 23.749 82.0371 22.9404 81.6035 21.915C81.1699 20.8838 80.9531 19.791 80.9531 18.6367C80.9531 17.4766 81.0908 16.4746 81.3662 15.6309C81.6416 14.7812 82.0166 14.0693 82.4912 13.4951C82.9717 12.9209 83.54 12.4756 84.1963 12.1592C84.8525 11.8369 85.5586 11.6758 86.3145 11.6758C87.7734 11.6758 88.9277 12.042 89.7773 12.7744ZM97.5029 13.7588C97.1045 13.2666 96.627 13.0205 96.0703 13.0205C95.5137 13.0205 95.0361 13.2666 94.6377 13.7588C94.2393 14.2451 93.9463 14.8896 93.7588 15.6924C93.5713 16.4951 93.4775 17.4121 93.4775 18.4434C93.4775 19.4746 93.5713 20.3916 93.7588 21.1943C93.9463 21.9971 94.2393 22.6416 94.6377 23.1279C95.0361 23.6143 95.5137 23.8574 96.0703 23.8574C96.627 23.8574 97.1045 23.6143 97.5029 23.1279C97.9014 22.6416 98.1943 21.9971 98.3818 21.1943C98.5693 20.3916 98.6631 19.4746 98.6631 18.4434C98.6631 17.4121 98.5693 16.4951 98.3818 15.6924C98.1943 14.8896 97.9014 14.2451 97.5029 13.7588ZM97.9951 24.6748C97.4326 25.0381 96.791 25.2197 96.0703 25.2197C95.3496 25.2197 94.708 25.0381 94.1455 24.6748C93.583 24.3057 93.1289 23.8047 92.7832 23.1719C92.0977 21.9004 91.7549 20.3213 91.7549 18.4346C91.7549 16.1025 92.2148 14.3242 93.1348 13.0996C93.457 12.666 93.8672 12.3203 94.3652 12.0625C94.8691 11.8047 95.4375 11.6758 96.0703 11.6758C96.7031 11.6758 97.2715 11.8047 97.7754 12.0625C98.6895 12.5312 99.3516 13.3486 99.7617 14.5146C100.178 15.6748 100.386 16.9814 100.386 18.4346C100.386 20.3213 100.043 21.9004 99.3574 23.1719C99.0117 23.8047 98.5576 24.3057 97.9951 24.6748ZM106.468 17.7578C107.464 17.7578 108.229 17.5762 108.762 17.2129C109.301 16.8438 109.57 16.2227 109.57 15.3496C109.57 14.9512 109.485 14.6055 109.315 14.3125C108.87 13.5566 107.909 13.1787 106.433 13.1787H104.763V17.7578H106.468ZM105.668 11.8955C106.758 11.8955 107.701 11.9746 108.498 12.1328C109.301 12.291 109.966 12.625 110.493 13.1348C111.021 13.6387 111.284 14.374 111.284 15.3408C111.284 16.3018 111.018 17.0693 110.484 17.6436C109.957 18.2119 109.254 18.5928 108.375 18.7861C109.066 19.6709 109.676 20.5967 110.203 21.5635C110.73 22.5244 111.296 23.6699 111.899 25H109.992C109.963 24.9414 109.863 24.7305 109.693 24.3672C109.529 23.998 109.43 23.7754 109.395 23.6992C109.359 23.623 109.266 23.4297 109.113 23.1191C108.967 22.8086 108.861 22.5977 108.797 22.4863C108.738 22.3691 108.636 22.1729 108.489 21.8975C108.349 21.6221 108.226 21.4023 108.12 21.2383C108.021 21.0742 107.865 20.8193 107.654 20.4736C107.449 20.1279 107.153 19.6885 106.767 19.1553L105.527 19.1816H104.763V25H103.119V11.8955H105.668ZM115.564 23.7168C117.68 23.7168 119.086 23.0547 119.783 21.7305C120.217 20.9102 120.434 19.8115 120.434 18.4346C120.434 16.7236 120.085 15.4199 119.388 14.5234C118.696 13.627 117.428 13.1787 115.582 13.1787H115.31V23.7168H115.564ZM113.666 11.8955H115.819C117.905 11.8955 119.481 12.4609 120.548 13.5918C121.62 14.7227 122.156 16.3486 122.156 18.4697C122.156 20.585 121.611 22.2021 120.521 23.3213C119.432 24.4404 117.8 25 115.626 25H113.666V11.8955Z" fill="black"/>
<path d="M25.4297 82.5625C26.3151 82.5625 26.9948 82.401 27.4688 82.0781C27.9479 81.75 28.1875 81.1979 28.1875 80.4219C28.1875 80.0677 28.112 79.7604 27.9609 79.5C27.5651 78.8281 26.7109 78.4922 25.3984 78.4922H23.9141V82.5625H25.4297ZM24.7188 77.3516C25.6875 77.3516 26.526 77.4219 27.2344 77.5625C27.9479 77.7031 28.5391 78 29.0078 78.4531C29.4766 78.901 29.7109 79.5547 29.7109 80.4141C29.7109 81.2682 29.474 81.9505 29 82.4609C28.5312 82.9661 27.9062 83.3047 27.125 83.4766C27.7396 84.263 28.2812 85.0859 28.75 85.9453C29.2188 86.7995 29.7214 87.8177 30.2578 89H28.5625C28.5365 88.9479 28.4479 88.7604 28.2969 88.4375C28.151 88.1094 28.0625 87.9115 28.0312 87.8438C28 87.776 27.9167 87.6042 27.7812 87.3281C27.651 87.0521 27.5573 86.8646 27.5 86.7656C27.4479 86.6615 27.3568 86.487 27.2266 86.2422C27.1016 85.9974 26.9922 85.8021 26.8984 85.6562C26.8099 85.5104 26.6719 85.2839 26.4844 84.9766C26.3021 84.6693 26.0391 84.2786 25.6953 83.8047L24.5938 83.8281H23.9141V89H22.4531V77.3516H24.7188ZM33.7656 83.6562V87.8594H39.2656L39.1484 89H32.3047V77.3516H39.0078L38.8828 78.4922H33.7656V82.4141H38.625V83.6562H33.7656ZM49.0312 78.1328L48.5156 79.1562C47.8229 78.6198 47.0729 78.3516 46.2656 78.3516C45.4583 78.3516 44.7917 78.5781 44.2656 79.0312C43.2344 79.9115 42.7188 81.2865 42.7188 83.1562C42.7188 84.0573 42.8516 84.8698 43.1172 85.5938C43.3828 86.3177 43.776 86.8984 44.2969 87.3359C44.8229 87.7682 45.4349 87.9844 46.1328 87.9844C47.0443 87.9844 47.8438 87.7031 48.5312 87.1406L49.0391 88.2422C48.3099 88.8776 47.2812 89.1953 45.9531 89.1953C45 89.1953 44.1589 88.9349 43.4297 88.4141C42.7057 87.888 42.151 87.1693 41.7656 86.2578C41.3802 85.3411 41.1875 84.3698 41.1875 83.3438C41.1875 82.3125 41.3099 81.4219 41.5547 80.6719C41.7995 79.9167 42.1328 79.2839 42.5547 78.7734C42.9818 78.263 43.487 77.8672 44.0703 77.5859C44.6536 77.2995 45.2812 77.1562 45.9531 77.1562C47.25 77.1562 48.276 77.4818 49.0312 78.1328ZM55.8984 79.0078C55.5443 78.5703 55.1198 78.3516 54.625 78.3516C54.1302 78.3516 53.7057 78.5703 53.3516 79.0078C52.9974 79.4401 52.737 80.013 52.5703 80.7266C52.4036 81.4401 52.3203 82.2552 52.3203 83.1719C52.3203 84.0885 52.4036 84.9036 52.5703 85.6172C52.737 86.3307 52.9974 86.9036 53.3516 87.3359C53.7057 87.7682 54.1302 87.9844 54.625 87.9844C55.1198 87.9844 55.5443 87.7682 55.8984 87.3359C56.2526 86.9036 56.513 86.3307 56.6797 85.6172C56.8464 84.9036 56.9297 84.0885 56.9297 83.1719C56.9297 82.2552 56.8464 81.4401 56.6797 80.7266C56.513 80.013 56.2526 79.4401 55.8984 79.0078ZM56.3359 88.7109C55.8359 89.0339 55.2656 89.1953 54.625 89.1953C53.9844 89.1953 53.4141 89.0339 52.9141 88.7109C52.4141 88.3828 52.0104 87.9375 51.7031 87.375C51.0938 86.2448 50.7891 84.8411 50.7891 83.1641C50.7891 81.0911 51.1979 79.5104 52.0156 78.4219C52.3021 78.0365 52.6667 77.7292 53.1094 77.5C53.5573 77.2708 54.0625 77.1562 54.625 77.1562C55.1875 77.1562 55.6927 77.2708 56.1406 77.5C56.9531 77.9167 57.5417 78.6432 57.9062 79.6797C58.276 80.7109 58.4609 81.8724 58.4609 83.1641C58.4609 84.8411 58.1562 86.2448 57.5469 87.375C57.2396 87.9375 56.8359 88.3828 56.3359 88.7109ZM63.8672 82.5625C64.7526 82.5625 65.4323 82.401 65.9062 82.0781C66.3854 81.75 66.625 81.1979 66.625 80.4219C66.625 80.0677 66.5495 79.7604 66.3984 79.5C66.0026 78.8281 65.1484 78.4922 63.8359 78.4922H62.3516V82.5625H63.8672ZM63.1562 77.3516C64.125 77.3516 64.9635 77.4219 65.6719 77.5625C66.3854 77.7031 66.9766 78 67.4453 78.4531C67.9141 78.901 68.1484 79.5547 68.1484 80.4141C68.1484 81.2682 67.9115 81.9505 67.4375 82.4609C66.9688 82.9661 66.3438 83.3047 65.5625 83.4766C66.1771 84.263 66.7188 85.0859 67.1875 85.9453C67.6562 86.7995 68.1589 87.8177 68.6953 89H67C66.974 88.9479 66.8854 88.7604 66.7344 88.4375C66.5885 88.1094 66.5 87.9115 66.4688 87.8438C66.4375 87.776 66.3542 87.6042 66.2188 87.3281C66.0885 87.0521 65.9948 86.8646 65.9375 86.7656C65.8854 86.6615 65.7943 86.487 65.6641 86.2422C65.5391 85.9974 65.4297 85.8021 65.3359 85.6562C65.2474 85.5104 65.1094 85.2839 64.9219 84.9766C64.7396 84.6693 64.4766 84.2786 64.1328 83.8047L63.0312 83.8281H62.3516V89H60.8906V77.3516H63.1562ZM71.9531 87.8594C73.8333 87.8594 75.0833 87.2708 75.7031 86.0938C76.0885 85.3646 76.2812 84.388 76.2812 83.1641C76.2812 81.6432 75.9714 80.4844 75.3516 79.6875C74.737 78.8906 73.6094 78.4922 71.9688 78.4922H71.7266V87.8594H71.9531ZM70.2656 77.3516H72.1797C74.0339 77.3516 75.4349 77.8542 76.3828 78.8594C77.3359 79.8646 77.8125 81.3099 77.8125 83.1953C77.8125 85.0755 77.3281 86.513 76.3594 87.5078C75.3906 88.5026 73.9401 89 72.0078 89H70.2656V77.3516ZM96.6875 89H94.9688L90.7656 79.5781V89H89.4375V77.3516H91.1172L95.3828 86.7422V77.3516H96.6875V89ZM101.336 84.0703H104.008L102.695 79.0156L101.336 84.0703ZM103.5 77.3516L106.945 89H105.406L104.305 85.2422H101.031L99.9375 89H98.4062L101.844 77.3516H103.5ZM110.102 79.3906V89H108.648V77.3516H110.641L112.305 82.7344L113.969 77.3516H115.914V89H114.5V79.3906L113.117 83.9531H111.484L110.102 79.3906ZM120.25 83.6562V87.8594H125.75L125.633 89H118.789V77.3516H125.492L125.367 78.4922H120.25V82.4141H125.109V83.6562H120.25Z" fill="black"/>
<path d="M344.828 87.8594H349.328L349.25 89H343.367V77.3516H344.828V87.8594ZM356.68 79.0078C356.326 78.5703 355.901 78.3516 355.406 78.3516C354.911 78.3516 354.487 78.5703 354.133 79.0078C353.779 79.4401 353.518 80.013 353.352 80.7266C353.185 81.4401 353.102 82.2552 353.102 83.1719C353.102 84.0885 353.185 84.9036 353.352 85.6172C353.518 86.3307 353.779 86.9036 354.133 87.3359C354.487 87.7682 354.911 87.9844 355.406 87.9844C355.901 87.9844 356.326 87.7682 356.68 87.3359C357.034 86.9036 357.294 86.3307 357.461 85.6172C357.628 84.9036 357.711 84.0885 357.711 83.1719C357.711 82.2552 357.628 81.4401 357.461 80.7266C357.294 80.013 357.034 79.4401 356.68 79.0078ZM357.117 88.7109C356.617 89.0339 356.047 89.1953 355.406 89.1953C354.766 89.1953 354.195 89.0339 353.695 88.7109C353.195 88.3828 352.792 87.9375 352.484 87.375C351.875 86.2448 351.57 84.8411 351.57 83.1641C351.57 81.0911 351.979 79.5104 352.797 78.4219C353.083 78.0365 353.448 77.7292 353.891 77.5C354.339 77.2708 354.844 77.1562 355.406 77.1562C355.969 77.1562 356.474 77.2708 356.922 77.5C357.734 77.9167 358.323 78.6432 358.688 79.6797C359.057 80.7109 359.242 81.8724 359.242 83.1641C359.242 84.8411 358.938 86.2448 358.328 87.375C358.021 87.9375 357.617 88.3828 357.117 88.7109ZM369.031 78.1328L368.516 79.1562C367.823 78.6198 367.073 78.3516 366.266 78.3516C365.458 78.3516 364.792 78.5781 364.266 79.0312C363.234 79.9115 362.719 81.2865 362.719 83.1562C362.719 84.0573 362.852 84.8698 363.117 85.5938C363.383 86.3177 363.776 86.8984 364.297 87.3359C364.823 87.7682 365.435 87.9844 366.133 87.9844C367.044 87.9844 367.844 87.7031 368.531 87.1406L369.039 88.2422C368.31 88.8776 367.281 89.1953 365.953 89.1953C365 89.1953 364.159 88.9349 363.43 88.4141C362.706 87.888 362.151 87.1693 361.766 86.2578C361.38 85.3411 361.188 84.3698 361.188 83.3438C361.188 82.3125 361.31 81.4219 361.555 80.6719C361.799 79.9167 362.133 79.2839 362.555 78.7734C362.982 78.263 363.487 77.8672 364.07 77.5859C364.654 77.2995 365.281 77.1562 365.953 77.1562C367.25 77.1562 368.276 77.4818 369.031 78.1328ZM373.289 84.0703H375.961L374.648 79.0156L373.289 84.0703ZM375.453 77.3516L378.898 89H377.359L376.258 85.2422H372.984L371.891 89H370.359L373.797 77.3516H375.453ZM388.258 77.3516V78.4922H384.945V89H383.484V78.4922H380.172V77.3516H388.258ZM390.562 78.4922V77.3516H397.133V78.4922H394.547V87.8594H397.133V89H390.562V87.8594H393.086V78.4922H390.562ZM404.727 79.0078C404.372 78.5703 403.948 78.3516 403.453 78.3516C402.958 78.3516 402.534 78.5703 402.18 79.0078C401.826 79.4401 401.565 80.013 401.398 80.7266C401.232 81.4401 401.148 82.2552 401.148 83.1719C401.148 84.0885 401.232 84.9036 401.398 85.6172C401.565 86.3307 401.826 86.9036 402.18 87.3359C402.534 87.7682 402.958 87.9844 403.453 87.9844C403.948 87.9844 404.372 87.7682 404.727 87.3359C405.081 86.9036 405.341 86.3307 405.508 85.6172C405.674 84.9036 405.758 84.0885 405.758 83.1719C405.758 82.2552 405.674 81.4401 405.508 80.7266C405.341 80.013 405.081 79.4401 404.727 79.0078ZM405.164 88.7109C404.664 89.0339 404.094 89.1953 403.453 89.1953C402.812 89.1953 402.242 89.0339 401.742 88.7109C401.242 88.3828 400.839 87.9375 400.531 87.375C399.922 86.2448 399.617 84.8411 399.617 83.1641C399.617 81.0911 400.026 79.5104 400.844 78.4219C401.13 78.0365 401.495 77.7292 401.938 77.5C402.385 77.2708 402.891 77.1562 403.453 77.1562C404.016 77.1562 404.521 77.2708 404.969 77.5C405.781 77.9167 406.37 78.6432 406.734 79.6797C407.104 80.7109 407.289 81.8724 407.289 83.1641C407.289 84.8411 406.984 86.2448 406.375 87.375C406.068 87.9375 405.664 88.3828 405.164 88.7109ZM416.688 89H414.969L410.766 79.5781V89H409.438V77.3516H411.117L415.383 86.7422V77.3516H416.688V89Z" fill="black"/>
<path d="M24.8359 201.156C25.8568 201.156 26.5651 201.008 26.9609 200.711C27.3568 200.409 27.5547 200 27.5547 199.484C27.5547 198.714 27.3438 198.198 26.9219 197.938C26.625 197.745 26.2526 197.622 25.8047 197.57C25.3568 197.518 24.7865 197.492 24.0938 197.492H23.6875V201.156H24.8359ZM25.1875 202.414H23.6875V206.859H24.9453C26.0339 206.859 26.8385 206.698 27.3594 206.375C27.8854 206.052 28.1484 205.461 28.1484 204.602C28.1484 203.737 27.8906 203.156 27.375 202.859C26.8594 202.562 26.1302 202.414 25.1875 202.414ZM29.6875 204.617C29.6875 206.872 28.1354 208 25.0312 208H22.2266V196.352H24.5156C26.2656 196.352 27.4635 196.602 28.1094 197.102C28.7604 197.596 29.0859 198.299 29.0859 199.211C29.0859 199.878 28.8984 200.411 28.5234 200.812C28.1484 201.214 27.6406 201.5 27 201.672C27.7708 201.786 28.4115 202.115 28.9219 202.656C29.4323 203.193 29.6875 203.846 29.6875 204.617ZM35.0391 201.562C35.9245 201.562 36.6042 201.401 37.0781 201.078C37.5573 200.75 37.7969 200.198 37.7969 199.422C37.7969 199.068 37.7214 198.76 37.5703 198.5C37.1745 197.828 36.3203 197.492 35.0078 197.492H33.5234V201.562H35.0391ZM34.3281 196.352C35.2969 196.352 36.1354 196.422 36.8438 196.562C37.5573 196.703 38.1484 197 38.6172 197.453C39.0859 197.901 39.3203 198.555 39.3203 199.414C39.3203 200.268 39.0833 200.951 38.6094 201.461C38.1406 201.966 37.5156 202.305 36.7344 202.477C37.349 203.263 37.8906 204.086 38.3594 204.945C38.8281 205.799 39.3307 206.818 39.8672 208H38.1719C38.1458 207.948 38.0573 207.76 37.9062 207.438C37.7604 207.109 37.6719 206.911 37.6406 206.844C37.6094 206.776 37.526 206.604 37.3906 206.328C37.2604 206.052 37.1667 205.865 37.1094 205.766C37.0573 205.661 36.9661 205.487 36.8359 205.242C36.7109 204.997 36.6016 204.802 36.5078 204.656C36.4193 204.51 36.2812 204.284 36.0938 203.977C35.9115 203.669 35.6484 203.279 35.3047 202.805L34.2031 202.828H33.5234V208H32.0625V196.352H34.3281ZM41.7344 197.492V196.352H48.3047V197.492H45.7188V206.859H48.3047V208H41.7344V206.859H44.2578V197.492H41.7344ZM52.9844 202.656V206.859H58.4844L58.3672 208H51.5234V196.352H58.2266L58.1016 197.492H52.9844V201.414H57.8438V202.656H52.9844ZM62.8047 202.664V208H61.3438V196.352H67.8594L67.7188 197.492H62.8047V201.391H67.5156V202.664H62.8047ZM70.5625 197.492V196.352H77.1328V197.492H74.5469V206.859H77.1328V208H70.5625V206.859H73.0859V197.492H70.5625ZM87.0781 208H85.3594L81.1562 198.578V208H79.8281V196.352H81.5078L85.7734 205.742V196.352H87.0781V208ZM96.4609 198.195C95.8411 197.633 95.0208 197.352 94 197.352C93.4635 197.352 92.9766 197.487 92.5391 197.758C92.1016 198.029 91.7474 198.391 91.4766 198.844C90.9141 199.786 90.6328 200.906 90.6328 202.203C90.6328 203.495 90.8854 204.602 91.3906 205.523C91.6354 205.977 91.9609 206.333 92.3672 206.594C92.7734 206.854 93.2109 206.984 93.6797 206.984C94.1536 206.984 94.5469 206.927 94.8594 206.812C95.1719 206.693 95.513 206.523 95.8828 206.305V203.117H93.2969V201.922H97.2344V206.969C96.625 207.359 96.0469 207.661 95.5 207.875C94.9531 208.089 94.3177 208.195 93.5938 208.195C92.875 208.195 92.2214 208.036 91.6328 207.719C91.0495 207.396 90.5755 206.956 90.2109 206.398C89.4714 205.268 89.1016 203.849 89.1016 202.141C89.1016 201.255 89.2214 200.438 89.4609 199.688C89.7057 198.938 90.0417 198.307 90.4688 197.797C90.8958 197.281 91.4036 196.88 91.9922 196.594C92.5807 196.307 93.2135 196.164 93.8906 196.164C95.1823 196.164 96.2135 196.495 96.9844 197.156L96.4609 198.195ZM116.305 196.352V197.492H112.992V208H111.531V197.492H108.219V196.352H116.305ZM122.578 208H121.117V203.367L117.633 196.352H119.242L121.859 201.953L124.508 196.352H126.156L122.578 203.367V208ZM129.539 202.023H131.562C132.302 202.023 132.893 201.831 133.336 201.445C133.784 201.06 134.008 200.492 134.008 199.742C134.008 198.992 133.786 198.43 133.344 198.055C132.901 197.68 132.307 197.492 131.562 197.492H129.539V202.023ZM135.203 198.117C135.427 198.56 135.539 199.073 135.539 199.656C135.539 201.24 134.971 202.268 133.836 202.742C133.128 203.039 132.24 203.188 131.172 203.188H129.539V208H128.078V196.352H131.18C133.268 196.352 134.609 196.94 135.203 198.117ZM139.469 202.656V206.859H144.969L144.852 208H138.008V196.352H144.711L144.586 197.492H139.469V201.414H144.328V202.656H139.469Z" fill="black"/>
<path d="M235.906 206.859C237.786 206.859 239.036 206.271 239.656 205.094C240.042 204.365 240.234 203.388 240.234 202.164C240.234 200.643 239.924 199.484 239.305 198.688C238.69 197.891 237.562 197.492 235.922 197.492H235.68V206.859H235.906ZM234.219 196.352H236.133C237.987 196.352 239.388 196.854 240.336 197.859C241.289 198.865 241.766 200.31 241.766 202.195C241.766 204.076 241.281 205.513 240.312 206.508C239.344 207.503 237.893 208 235.961 208H234.219V196.352ZM246.07 203.07H248.742L247.43 198.016L246.07 203.07ZM248.234 196.352L251.68 208H250.141L249.039 204.242H245.766L244.672 208H243.141L246.578 196.352H248.234ZM261.039 196.352V197.492H257.727V208H256.266V197.492H252.953V196.352H261.039ZM264.984 202.656V206.859H270.484L270.367 208H263.523V196.352H270.227L270.102 197.492H264.984V201.414H269.844V202.656H264.984Z" fill="black"/>
<path d="M393.656 205.961C394.49 206.643 395.482 206.984 396.633 206.984C397.258 206.984 397.74 206.794 398.078 206.414C398.417 206.029 398.586 205.531 398.586 204.922C398.586 204.312 398.409 203.852 398.055 203.539C397.706 203.221 397.281 202.961 396.781 202.758L396.312 202.57C395.427 202.216 394.812 201.917 394.469 201.672C394.13 201.427 393.883 201.203 393.727 201C393.357 200.521 393.172 199.93 393.172 199.227C393.172 198.253 393.503 197.497 394.164 196.961C394.826 196.419 395.677 196.148 396.719 196.148C398.031 196.148 399.055 196.438 399.789 197.016L399.242 198.141C398.565 197.615 397.75 197.352 396.797 197.352C396.182 197.352 395.693 197.521 395.328 197.859C394.969 198.193 394.789 198.661 394.789 199.266C394.789 199.865 395.12 200.357 395.781 200.742C396.031 200.883 396.409 201.052 396.914 201.25C397.424 201.448 397.932 201.68 398.438 201.945C398.948 202.211 399.375 202.57 399.719 203.023C400.062 203.477 400.234 204.055 400.234 204.758C400.234 205.878 399.909 206.732 399.258 207.32C398.612 207.904 397.727 208.195 396.602 208.195C395.201 208.195 394.034 207.885 393.102 207.266L393.656 205.961ZM410.43 196.352V197.492H407.117V208H405.656V197.492H402.344V196.352H410.43ZM414.68 203.07H417.352L416.039 198.016L414.68 203.07ZM416.844 196.352L420.289 208H418.75L417.648 204.242H414.375L413.281 208H411.75L415.188 196.352H416.844ZM425.258 201.562C426.143 201.562 426.823 201.401 427.297 201.078C427.776 200.75 428.016 200.198 428.016 199.422C428.016 199.068 427.94 198.76 427.789 198.5C427.393 197.828 426.539 197.492 425.227 197.492H423.742V201.562H425.258ZM424.547 196.352C425.516 196.352 426.354 196.422 427.062 196.562C427.776 196.703 428.367 197 428.836 197.453C429.305 197.901 429.539 198.555 429.539 199.414C429.539 200.268 429.302 200.951 428.828 201.461C428.359 201.966 427.734 202.305 426.953 202.477C427.568 203.263 428.109 204.086 428.578 204.945C429.047 205.799 429.549 206.818 430.086 208H428.391C428.365 207.948 428.276 207.76 428.125 207.438C427.979 207.109 427.891 206.911 427.859 206.844C427.828 206.776 427.745 206.604 427.609 206.328C427.479 206.052 427.385 205.865 427.328 205.766C427.276 205.661 427.185 205.487 427.055 205.242C426.93 204.997 426.82 204.802 426.727 204.656C426.638 204.51 426.5 204.284 426.312 203.977C426.13 203.669 425.867 203.279 425.523 202.805L424.422 202.828H423.742V208H422.281V196.352H424.547ZM439.258 196.352V197.492H435.945V208H434.484V197.492H431.172V196.352H439.258Z" fill="black"/>
<path d="M525.156 202.656V206.859H530.656L530.539 208H523.695V196.352H530.398L530.273 197.492H525.156V201.414H530.016V202.656H525.156ZM540.031 208H538.312L534.109 198.578V208H532.781V196.352H534.461L538.727 205.742V196.352H540.031V208ZM544.125 206.859C546.005 206.859 547.255 206.271 547.875 205.094C548.26 204.365 548.453 203.388 548.453 202.164C548.453 200.643 548.143 199.484 547.523 198.688C546.909 197.891 545.781 197.492 544.141 197.492H543.898V206.859H544.125ZM542.438 196.352H544.352C546.206 196.352 547.607 196.854 548.555 197.859C549.508 198.865 549.984 200.31 549.984 202.195C549.984 204.076 549.5 205.513 548.531 206.508C547.562 207.503 546.112 208 544.18 208H542.438V196.352Z" fill="black"/>
<path d="M284.457 333.209H285.564V336.347H288.962V337.379H285.558V340.517H284.43V337.379H281.039V336.347H284.457V333.209ZM299.845 337.687H302.183L301.034 333.264L299.845 337.687ZM301.738 331.808L304.753 342H303.406L302.442 338.712H299.578L298.621 342H297.281L300.289 331.808H301.738ZM307.768 341.002C309.413 341.002 310.507 340.487 311.049 339.457C311.386 338.819 311.555 337.965 311.555 336.894C311.555 335.563 311.284 334.549 310.741 333.852C310.203 333.154 309.217 332.806 307.781 332.806H307.569V341.002H307.768ZM306.291 331.808H307.966C309.588 331.808 310.814 332.247 311.644 333.127C312.478 334.007 312.895 335.271 312.895 336.921C312.895 338.566 312.471 339.824 311.623 340.694C310.775 341.565 309.506 342 307.815 342H306.291V331.808ZM316.176 341.002C317.821 341.002 318.915 340.487 319.457 339.457C319.794 338.819 319.963 337.965 319.963 336.894C319.963 335.563 319.692 334.549 319.149 333.852C318.612 333.154 317.625 332.806 316.189 332.806H315.978V341.002H316.176ZM314.699 331.808H316.374C317.996 331.808 319.222 332.247 320.052 333.127C320.886 334.007 321.303 335.271 321.303 336.921C321.303 338.566 320.879 339.824 320.031 340.694C319.184 341.565 317.914 342 316.224 342H314.699V331.808ZM333.211 337.324V341.002H338.023L337.921 342H331.933V331.808H337.798L337.688 332.806H333.211V336.237H337.463V337.324H333.211ZM342.207 341.002H346.145L346.076 342H340.929V331.808H342.207V341.002ZM350.027 337.324V341.002H354.84L354.737 342H348.749V331.808H354.614L354.505 332.806H350.027V336.237H354.279V337.324H350.027ZM357.964 333.592V342H356.692V331.808H358.436L359.892 336.518L361.348 331.808H363.05V342H361.812V333.592L360.603 337.584H359.174L357.964 333.592ZM366.844 337.324V341.002H371.656L371.554 342H365.565V331.808H371.431L371.321 332.806H366.844V336.237H371.096V337.324H366.844ZM379.859 342H378.355L374.678 333.756V342H373.516V331.808H374.985L378.718 340.024V331.808H379.859V342ZM388.616 331.808V332.806H385.718V342H384.439V332.806H381.541V331.808H388.616ZM390.756 340.216C391.485 340.813 392.353 341.111 393.36 341.111C393.907 341.111 394.329 340.945 394.625 340.612C394.921 340.275 395.069 339.84 395.069 339.307C395.069 338.773 394.914 338.37 394.604 338.097C394.299 337.819 393.928 337.591 393.49 337.413L393.08 337.249C392.305 336.939 391.768 336.677 391.467 336.463C391.171 336.249 390.954 336.053 390.817 335.875C390.494 335.456 390.332 334.938 390.332 334.323C390.332 333.471 390.621 332.81 391.2 332.341C391.779 331.867 392.524 331.63 393.436 331.63C394.584 331.63 395.479 331.883 396.122 332.389L395.644 333.373C395.051 332.913 394.338 332.683 393.504 332.683C392.966 332.683 392.538 332.831 392.219 333.127C391.904 333.419 391.747 333.829 391.747 334.357C391.747 334.882 392.036 335.312 392.615 335.649C392.834 335.772 393.164 335.921 393.606 336.094C394.053 336.267 394.497 336.47 394.939 336.702C395.386 336.935 395.76 337.249 396.061 337.646C396.361 338.042 396.512 338.548 396.512 339.163C396.512 340.143 396.227 340.89 395.657 341.405C395.092 341.916 394.317 342.171 393.333 342.171C392.107 342.171 391.086 341.9 390.271 341.357L390.756 340.216Z" fill="black"/>
<path d="M642.071 13.7578L637.829 18L642.071 22.2422L639.242 25.0713L635 20.8291L630.758 25.0713L627.929 22.2422L632.171 18L627.929 13.7578L630.758 10.9287L635 15.1709L639.242 10.9287L642.071 13.7578Z" fill="#2C2C2C"/>
<path d="M631 115.667L623.866 122.3L623.903 122.334L621.036 125L621 124.966L620.964 125L618.097 122.334L618.133 122.3L611 115.667L613.867 113L621 119.633L628.133 113L631 115.667Z" fill="#2C2C2C"/>
<path d="M502 234.667L494.866 241.3L494.903 241.334L492.036 244L492 243.966L491.964 244L489.097 241.334L489.133 241.3L482 234.667L484.867 232L492 238.633L499.133 232L502 234.667Z" fill="#2C2C2C"/>
<path d="M631 234.667L623.866 241.3L623.903 241.334L621.036 244L621 243.966L620.964 244L618.097 241.334L618.133 241.3L611 234.667L613.867 232L621 238.633L628.133 232L631 234.667Z" fill="#2C2C2C"/>
<path d="M191 234.667L183.866 241.3L183.903 241.334L181.036 244L181 243.966L180.964 244L178.097 241.334L178.133 241.3L171 234.667L173.867 232L181 238.633L188.133 232L191 234.667Z" fill="#2C2C2C"/>
<rect x="347" y="223" width="8" height="8" fill="#2C2C2C"/>
<rect x="347" y="233" width="8" height="8" fill="#2C2C2C"/>
<rect x="347" y="243" width="8" height="8" fill="#2C2C2C"/>
<rect x="357" y="223" width="8" height="8" fill="#2C2C2C"/>
<rect x="357" y="233" width="8" height="8" fill="#2C2C2C"/>
<rect x="357" y="243" width="8" height="8" fill="#2C2C2C"/>
<rect x="367.5" y="223.5" width="7" height="7" stroke="#2C2C2C"/>
<rect x="367" y="233" width="8" height="8" fill="#2C2C2C"/>
<rect x="367" y="243" width="8" height="8" fill="#2C2C2C"/>
<rect x="21" y="285" width="621" height="2" fill="#D9D9D9"/>
</svg>
