<svg width="96" height="33" viewBox="0 0 96 33" fill="none" xmlns="http://www.w3.org/2000/svg">
<path d="M-4.84714e-05 26.9914V-9.16138e-07H11.8229C13.7998 -9.16138e-07 15.5105 0.329471 16.9551 0.988416C18.425 1.64736 19.5528 2.58509 20.3385 3.8016C21.1242 4.99277 21.517 6.41203 21.517 8.05939C21.517 9.30125 21.2509 10.4037 20.7187 11.3668C20.2118 12.3299 19.5022 13.1155 18.5898 13.7238C17.7027 14.332 16.6763 14.7122 15.5105 14.8643L15.3964 14.5221C17.1959 14.5221 18.5644 14.9149 19.5022 15.7006C20.4399 16.4609 20.9721 17.6394 21.0988 19.2361L21.7831 26.9914H15.8906L15.3964 20.1485C15.3204 19.1094 14.9909 18.3491 14.408 17.8675C13.8504 17.3606 12.8874 17.1072 11.5188 17.1072H5.77838V26.9914H-4.84714e-05ZM5.77838 12.2792H11.1767C12.5706 12.2792 13.6477 11.9624 14.408 11.3288C15.1937 10.6698 15.5865 9.74477 15.5865 8.5536C15.5865 7.33709 15.1937 6.4247 14.408 5.81645C13.6224 5.18285 12.4819 4.86605 10.9866 4.86605H5.77838V12.2792ZM33.176 27.4476C31.0978 27.4476 29.2857 27.0167 27.7398 26.155C26.2191 25.268 25.0279 24.0261 24.1662 22.4294C23.3299 20.8328 22.9117 18.9573 22.9117 16.8031C22.9117 14.6488 23.3299 12.786 24.1662 11.2147C25.0279 9.61805 26.2191 8.37619 27.7398 7.48915C29.2604 6.60211 31.0598 6.15859 33.138 6.15859C35.1655 6.15859 36.927 6.60211 38.4222 7.48915C39.9175 8.37619 41.0707 9.64339 41.8817 11.2908C42.7181 12.9381 43.1362 14.9023 43.1362 17.1832V18.3237H28.8042C28.8802 19.9457 29.3111 21.1496 30.0967 21.9352C30.9078 22.7209 31.9722 23.1137 33.2901 23.1137C34.2532 23.1137 35.0515 22.911 35.6851 22.5055C36.344 22.1 36.8129 21.479 37.0917 20.6427L42.8321 20.9848C42.2999 23.0124 41.1721 24.5964 39.4487 25.7368C37.7253 26.8773 35.6344 27.4476 33.176 27.4476ZM28.8042 14.8262H37.2818C37.2057 13.3309 36.7876 12.2158 36.0272 11.4808C35.2923 10.7459 34.3292 10.3784 33.138 10.3784C31.9469 10.3784 30.9584 10.7712 30.1728 11.5569C29.4125 12.3172 28.9563 13.407 28.8042 14.8262ZM50.6477 26.9914C48.975 26.9914 47.6697 26.5732 46.732 25.7368C45.7943 24.9005 45.3254 23.5446 45.3254 21.6691V-9.16138e-07H51.0278V21.0609C51.0278 21.6691 51.1672 22.1 51.446 22.3534C51.7248 22.6068 52.1303 22.7336 52.6625 22.7336H54.0311V26.9914H50.6477ZM62.4525 27.4476C60.349 27.4476 58.6256 26.966 57.2823 26.0029C55.9645 25.0145 55.3055 23.646 55.3055 21.8972C55.3055 20.0978 55.8631 18.7165 56.9782 17.7535C58.1187 16.7651 59.7914 16.0428 61.9963 15.5866L68.5731 14.294C68.5731 12.9761 68.269 11.9877 67.6607 11.3288C67.0778 10.6445 66.2288 10.3023 65.1136 10.3023C64.0238 10.3023 63.1748 10.5558 62.5666 11.0627C61.9583 11.5442 61.5655 12.2665 61.3881 13.2296L55.6477 12.9635C56.0278 10.7332 57.0289 9.04781 58.6509 7.90733C60.2983 6.7415 62.4525 6.15859 65.1136 6.15859C68.1549 6.15859 70.4359 6.8809 71.9565 8.3255C73.5025 9.77011 74.2755 11.8863 74.2755 14.6742V21.6311C74.2755 22.214 74.3642 22.6068 74.5416 22.8096C74.7444 22.987 75.0358 23.0757 75.416 23.0757H75.9862V26.9914C75.8088 27.042 75.5173 27.0927 75.1118 27.1434C74.7317 27.1941 74.3515 27.2195 73.9714 27.2195C73.1604 27.2195 72.4 27.0801 71.6904 26.8013C71.0061 26.5225 70.4485 26.0536 70.0177 25.3947C69.5869 24.7104 69.3714 23.7473 69.3714 22.5055L69.8656 22.8856C69.6122 23.798 69.156 24.5964 68.4971 25.2806C67.8635 25.9649 67.0271 26.4972 65.988 26.8773C64.9742 27.2575 63.7957 27.4476 62.4525 27.4476ZM63.8211 23.5319C64.7588 23.5319 65.5825 23.3545 66.2921 22.9997C67.0018 22.6195 67.5593 22.0746 67.9648 21.365C68.3703 20.6554 68.5731 19.819 68.5731 18.8559V17.8675L63.9351 18.8559C63.0228 19.0333 62.3258 19.3375 61.8443 19.7683C61.3881 20.1738 61.16 20.706 61.16 21.365C61.16 22.0493 61.3881 22.5815 61.8443 22.9617C62.3005 23.3418 62.9594 23.5319 63.8211 23.5319ZM77.8327 32.6938V28.436H80.5318C81.1907 28.436 81.6723 28.3346 81.9764 28.1318C82.3059 27.9544 82.5593 27.625 82.7367 27.1434L83.1549 25.9649H81.5962L74.4492 6.61478H80.2657L84.9417 20.6427L89.3135 6.61478H95.1299L87.2986 28.9302C86.8425 30.2734 86.1835 31.2365 85.3218 31.8194C84.4601 32.4023 83.2563 32.6938 81.7103 32.6938H77.8327Z" fill="#2C2C2C"/>
</svg>
